<?xml version="1.0" standalone="no"?>
<!DOCTYPE svg PUBLIC "-//W3C//DTD SVG 20010904//EN"
 "http://www.w3.org/TR/2001/REC-SVG-20010904/DTD/svg10.dtd">
<svg version="1.0" xmlns="http://www.w3.org/2000/svg"
 width="300.000000pt" height="50.000000pt" viewBox="0 0 300.000000 375.000000"
 preserveAspectRatio="xMidYMid meet" fill = "red">
<metadata>
Created by potrace 1.10, written by Peter Selinger 2001-2011
</metadata>
<g transform="translate(0.000000,375.000000) scale(0.100000,-0.100000)"
fill="yellow" stroke="yellow" stroke-width="10">
<path d="M235 3596 c-37 -16 -70 -52 -84 -89 -8 -20 -11 -523 -11 -1641 l0
-1613 23 -33 c12 -18 35 -43 50 -54 l28 -21 1246 -3 c1243 -2 1246 -2 1289 18
31 16 48 33 63 64 l21 43 -2 1621 c-3 1619 -3 1621 -24 1648 -11 15 -33 37
-48 48 -27 21 -32 21 -1274 23 -1024 2 -1252 0 -1277 -11z m2552 -22 c15 -11
36 -36 45 -55 17 -32 18 -131 18 -1644 0 -1513 -1 -1612 -18 -1644 -9 -19 -30
-44 -45 -55 -28 -21 -30 -21 -1287 -21 -1257 0 -1259 0 -1287 21 -15 11 -36
36 -46 55 -16 32 -17 127 -15 1656 l3 1622 21 28 c11 15 36 36 55 46 32 16
109 17 1281 15 1243 -3 1247 -3 1275 -24z"/>
<path d="M2565 3473 c-71 -2 -597 -4 -1169 -6 l-1039 -2 2 -880 c1 -484 6
-932 12 -994 19 -231 70 -416 166 -604 181 -354 526 -633 923 -746 l70 -20
101 34 c123 42 304 135 413 214 380 276 606 675 655 1159 13 119 16 1847 4
1847 -5 0 -66 -1 -138 -2z m115 -764 c-1 -851 -10 -1131 -39 -1267 -90 -412
-316 -746 -661 -977 -146 -98 -384 -205 -456 -205 -41 0 -197 56 -304 109
-422 208 -697 564 -790 1021 -32 156 -40 372 -39 1100 l0 655 24 -28 c14 -15
25 -35 25 -43 0 -19 79 -104 96 -104 6 0 22 -11 35 -25 26 -27 45 -32 52 -12
3 8 7 6 12 -6 5 -13 1 -23 -14 -34 -31 -21 -24 -57 12 -61 27 -3 55 -36 38
-46 -4 -3 -11 -19 -14 -36 -7 -30 -27 -42 -27 -15 0 30 -70 46 -111 24 -21
-11 -17 -29 7 -29 8 0 13 4 10 9 -3 5 1 11 9 15 17 6 21 -9 4 -19 -6 -4 -8
-14 -5 -21 4 -10 -8 -21 -39 -34 -32 -14 -45 -25 -45 -39 0 -23 16 -36 25 -21
3 5 15 10 25 10 16 0 18 -5 13 -35 -3 -19 -3 -41 1 -50 5 -14 8 -14 33 1 16
10 39 27 52 38 l24 21 -6 -32 c-4 -18 -2 -35 3 -38 12 -8 40 35 40 63 0 17 10
27 45 42 25 11 45 24 45 30 0 5 3 9 8 9 20 -3 32 2 32 15 0 8 9 18 20 21 11 3
20 15 20 26 0 10 7 19 15 19 8 0 15 -4 15 -10 0 -5 11 -9 25 -8 19 2 25 8 25
25 0 27 15 31 24 6 5 -12 9 -14 18 -5 19 19 38 14 38 -11 0 -13 5 -28 11 -34
6 -6 8 -16 5 -22 -11 -18 -40 -13 -54 9 -15 25 -48 26 -61 3 -6 -10 -11 -12
-11 -5 0 6 -10 12 -22 12 -22 -1 -22 -1 -4 -15 11 -8 18 -16 15 -18 -55 -39
-79 -61 -79 -73 0 -16 16 -19 25 -4 16 26 25 7 19 -39 -7 -51 10 -80 27 -48 8
13 62 47 77 47 2 0 1 -12 -2 -26 -5 -19 -4 -24 6 -18 29 16 48 38 48 56 0 10
8 18 18 19 9 1 22 2 27 4 6 1 16 3 23 3 6 1 12 9 12 17 0 8 11 17 25 21 13 3
27 14 30 24 5 15 35 37 39 28 19 -49 70 -62 113 -28 33 26 53 12 29 -21 -9
-13 -16 -38 -16 -56 0 -32 12 -43 25 -23 3 6 20 10 36 10 52 0 27 -24 -32 -32
-30 -4 -81 -11 -114 -15 l-60 -8 -1 -60 c-2 -70 -11 -73 -60 -19 -36 39 -47
41 -72 16 -10 -10 -26 -21 -35 -25 -10 -4 -22 -18 -28 -31 -10 -21 -7 -33 16
-78 36 -71 39 -73 75 -58 26 11 36 10 70 -5 38 -17 39 -19 44 -79 3 -33 8
-118 11 -188 6 -125 6 -126 -15 -121 -12 3 -24 13 -27 22 -10 27 -46 61 -65
61 -10 0 -26 -9 -35 -20 -10 -11 -25 -20 -33 -20 -9 0 -21 -5 -28 -12 -15 -15
-16 -64 -2 -73 6 -4 17 -21 24 -40 17 -40 44 -50 90 -34 29 11 38 10 67 -7 30
-18 34 -25 37 -68 3 -45 5 -48 28 -42 27 7 104 -27 104 -45 0 -13 57 -9 353
21 189 19 220 29 238 77 16 43 -26 782 -48 825 -29 60 -94 73 -256 53 -171
-21 -168 -21 -154 10 13 27 36 32 55 13 20 -20 25 17 8 51 -20 38 -20 38 5 44
13 3 19 12 17 24 -4 21 21 24 41 5 18 -17 71 -11 84 9 14 22 1 57 -15 41 -21
-21 -25 -13 -20 38 7 71 -12 108 -64 131 l-42 19 29 29 c20 20 29 40 29 61 0
33 -33 106 -50 112 -8 2 -8 15 1 45 12 38 16 41 47 40 50 -1 57 20 19 64 -48
55 -78 70 -139 68 -29 -1 -78 6 -108 15 -45 13 -64 14 -102 5 -39 -9 -61 -8
-121 6 -72 17 -73 17 -114 -4 -49 -25 -61 -43 -70 -107 l-6 -47 -14 53 c-7 30
-11 60 -9 67 9 23 -32 55 -57 46 -12 -4 -47 -7 -78 -5 -42 2 -61 -2 -80 -16
-13 -11 -39 -23 -56 -26 -40 -9 -47 -19 -33 -47 11 -19 10 -20 -10 -9 -27 14
-57 5 -42 -13 14 -18 26 -90 13 -82 -6 3 -11 15 -11 25 0 29 -11 50 -26 50 -8
0 -14 -5 -14 -12 0 -9 -3 -9 -12 0 -7 7 -23 12 -36 12 -20 0 -22 -3 -13 -14 9
-11 9 -20 2 -35 -6 -11 -11 -32 -11 -46 0 -22 -3 -26 -17 -20 -10 4 -23 8 -30
8 -8 0 -13 37 -15 125 -2 68 -2 124 -1 125 1 1 517 4 1147 6 l1146 3 0 -733z
m-1784 651 c1 -19 8 -57 15 -83 11 -41 11 -50 -2 -58 -19 -12 -25 -11 -43 7
-9 8 -16 28 -16 44 0 45 -10 59 -53 80 -47 23 -68 25 -85 8 -22 -22 -13 -30
31 -27 88 7 111 -24 70 -96 -13 -25 -29 -47 -33 -50 -14 -9 -112 7 -103 16 4
4 26 9 48 11 34 3 41 7 43 28 2 14 8 30 14 37 12 14 2 33 -16 33 -8 0 -19 -7
-26 -15 -11 -13 -15 -13 -21 -3 -7 10 -9 9 -9 -4 0 -10 -4 -18 -10 -18 -5 0
-10 5 -10 10 0 6 -11 10 -24 10 -14 0 -28 5 -31 11 -8 12 32 59 51 59 6 0 15
7 18 15 4 13 20 15 76 13 38 -1 73 1 77 5 17 18 38 1 39 -33z m249 23 c54 -14
69 -15 103 -4 35 12 48 11 109 -7 47 -14 83 -19 116 -15 46 5 49 4 87 -38 47
-50 40 -67 -18 -44 -34 14 -47 15 -76 5 -43 -14 -88 -16 -107 -5 -7 5 -31 8
-54 7 -22 -1 -51 -2 -65 -2 -14 -1 -55 13 -92 29 -76 35 -104 38 -136 15 -25
-17 -29 -64 -9 -103 21 -42 39 -39 32 5 l-6 39 25 -28 c14 -15 26 -35 26 -43
0 -8 5 -14 10 -14 9 0 14 23 13 58 -1 27 17 10 28 -28 7 -22 16 -40 21 -40 6
0 7 17 3 40 -9 53 8 52 31 -2 17 -41 18 -42 22 -15 4 33 19 36 25 5 3 -20 4
-21 10 -5 21 52 21 52 25 20 4 -39 17 -43 26 -8 8 30 26 33 26 5 0 -23 18 -27
26 -5 3 8 -2 22 -11 31 -10 11 -13 20 -7 26 14 14 32 1 25 -17 -3 -8 0 -15 6
-15 6 0 11 -10 11 -22 1 -21 2 -21 11 -5 8 13 7 22 -1 33 -16 19 -3 18 17 -1
8 -9 13 -22 10 -29 -10 -26 5 -25 30 2 l24 27 -6 -32 c-4 -21 -3 -33 4 -33 6
0 11 6 11 13 0 8 11 24 25 37 27 25 32 16 13 -25 -10 -21 -8 -29 9 -48 58 -63
58 -112 2 -161 -37 -31 -40 -36 -23 -42 55 -17 74 -28 94 -49 19 -21 22 -32
18 -80 -5 -56 8 -85 32 -70 5 3 10 1 10 -4 0 -6 -11 -11 -24 -11 -34 0 -66 44
-66 91 0 46 -17 64 -87 95 -29 13 -53 29 -53 34 0 13 -61 40 -90 40 -11 0 -20
-4 -20 -10 0 -5 14 -10 30 -10 35 0 67 -28 76 -67 11 -52 13 -55 32 -48 28 12
55 11 59 -2 3 -8 -3 -13 -14 -13 -11 0 -28 -7 -39 -15 -18 -14 -17 -15 10 -9
25 6 28 5 21 -15 -4 -12 -2 -21 4 -21 6 0 8 -7 5 -15 -4 -10 0 -15 12 -16 18
-1 18 -2 1 -6 -18 -5 -18 -5 0 -19 17 -12 16 -13 -9 -14 -33 0 -43 -13 -23
-30 8 -7 15 -21 15 -31 0 -23 -25 -25 -34 -4 -3 8 -10 15 -15 15 -7 0 -7 -9 1
-25 12 -27 -2 -55 -28 -55 -22 0 -26 18 -9 49 8 17 11 32 6 36 -12 7 -41 -34
-41 -58 0 -16 -3 -17 -15 -7 -8 7 -15 23 -15 36 0 19 8 25 39 34 39 10 81 50
81 76 0 31 -46 66 -98 75 -29 4 -61 10 -70 14 -15 4 -18 -1 -18 -29 0 -21 -11
-50 -29 -75 -27 -40 -28 -42 -9 -56 17 -13 17 -14 2 -15 -19 0 -48 26 -48 44
0 6 16 36 35 66 19 30 35 58 35 61 0 4 -13 17 -30 29 -16 12 -33 32 -36 46 -6
24 -57 74 -75 74 -18 0 -9 -22 11 -27 32 -8 23 -20 -19 -27 -21 -3 -65 -24
-98 -46 -43 -28 -71 -40 -97 -40 -20 0 -36 -4 -36 -10 0 -5 7 -10 15 -10 19 0
19 -19 0 -44 -14 -19 -15 -19 -15 7 0 17 -5 27 -15 27 -8 0 -15 -9 -15 -20 0
-13 -5 -18 -15 -14 -10 4 -15 0 -15 -11 0 -9 -4 -13 -10 -10 -5 3 -10 1 -10
-5 0 -13 -49 -55 -64 -55 -5 0 -12 -9 -17 -20 -4 -11 -8 -14 -8 -7 -2 21 -21
13 -21 -9 0 -17 -3 -19 -14 -10 -12 10 -15 7 -18 -16 -4 -35 -22 -37 -27 -3
-3 24 -4 24 -20 -10 -10 -23 -23 -35 -36 -35 -27 0 -31 31 -5 38 12 3 24 14
27 25 2 11 14 24 26 30 20 9 18 10 -20 21 -45 12 -51 19 -31 39 18 18 38 14
38 -8 0 -28 27 -36 49 -16 10 9 30 16 45 16 30 0 86 48 86 73 0 8 6 26 13 40
10 19 17 23 25 15 13 -13 42 -4 42 13 0 6 -7 9 -15 6 -8 -4 -17 -2 -20 2 -2 5
4 11 15 14 12 3 20 14 20 26 0 19 3 20 22 10 18 -10 24 -8 40 11 10 12 18 30
18 39 0 10 10 23 23 30 24 13 76 12 347 -8 120 -8 138 -8 165 8 40 22 46 68
13 97 -42 38 -81 44 -237 37 -160 -7 -240 7 -276 47 -28 31 -31 117 -5 158 33
54 67 61 165 35z m2 -93 c36 -16 74 -30 84 -30 11 0 19 -7 19 -15 0 -17 -16
-20 -25 -5 -5 8 -11 8 -19 1 -9 -7 -17 -5 -29 9 -19 22 -37 26 -37 8 0 -6 -7
-4 -18 5 -29 26 -43 21 -36 -10 l7 -28 -26 28 c-31 32 -47 35 -47 6 0 -11 -4
-17 -10 -14 -15 9 -12 42 6 59 23 23 56 20 131 -14z m-532 -26 c14 -34 17 -36
48 -30 17 3 44 15 59 26 36 26 46 25 22 -1 -61 -69 -164 -56 -164 20 0 33 18
25 35 -15z m58 -5 c22 0 22 0 -1 -11 -19 -9 -26 -8 -40 7 -16 17 -16 17 1 11
10 -3 28 -6 40 -7z m837 2 c0 -5 -7 -14 -16 -22 -13 -10 -17 -10 -24 1 -5 8
-6 18 -4 22 7 11 44 10 44 -1z m-1003 -38 c4 -9 1 -19 -5 -21 -14 -4 -17 -32
-4 -32 5 0 15 11 22 25 7 14 17 25 22 25 14 0 9 -11 -22 -50 -40 -51 -38 -62
5 -20 43 41 60 32 19 -11 l-29 -31 24 -19 c18 -14 32 -18 54 -13 27 6 28 4 21
-17 -5 -13 -7 -46 -6 -74 3 -54 -7 -53 -24 3 l-12 37 -1 -30 c-1 -26 -3 -27
-12 -12 -6 9 -15 15 -20 11 -6 -3 -13 4 -16 16 -3 13 -11 19 -19 16 -9 -3 -14
2 -14 13 0 10 -9 26 -20 36 -11 10 -19 25 -18 34 2 9 -4 16 -12 16 -8 0 -15 7
-15 15 0 8 9 15 20 15 15 0 21 8 23 30 4 41 10 55 22 55 6 0 14 -8 17 -17z
m504 -73 c43 -24 50 -25 234 -25 160 0 195 -3 221 -17 45 -25 51 -48 19 -76
-26 -22 -32 -22 -148 -16 -67 3 -136 10 -154 16 -18 5 -68 8 -111 7 -81 -2
-87 0 -145 55 -14 13 -16 21 -8 29 16 16 13 44 -5 51 -15 6 -14 9 7 29 l24 22
11 -25 c6 -14 31 -36 55 -50z m-110 -12 c-10 -11 -17 -8 -37 15 -13 15 -24 38
-24 50 0 19 4 18 37 -15 30 -31 35 -40 24 -50z m-241 46 c0 -8 8 -14 17 -14
11 0 6 -8 -17 -25 -19 -14 -42 -25 -52 -25 -10 0 -18 -7 -18 -15 0 -17 -35
-20 -46 -4 -3 6 6 23 20 38 18 19 25 34 20 47 -5 16 -4 16 5 4 9 -13 11 -13
11 1 0 12 8 14 30 11 17 -2 30 -10 30 -18z m174 -18 c3 -13 16 -30 28 -39 13
-8 42 -33 65 -55 34 -32 39 -42 29 -51 -18 -15 -68 26 -86 69 -18 42 -30 37
-17 -7 6 -20 26 -52 44 -71 37 -39 38 -43 21 -60 -29 -29 -87 56 -88 131 0 20
-4 37 -10 37 -17 0 -10 -93 10 -139 24 -51 25 -71 6 -71 -22 0 -46 63 -46 121
0 39 -3 50 -11 42 -11 -11 -9 -74 7 -179 4 -26 2 -44 -5 -48 -18 -12 -33 44
-35 131 0 46 -4 83 -8 83 -16 0 -25 -73 -20 -159 5 -89 4 -91 -17 -91 -14 0
-21 5 -18 13 2 6 10 11 17 9 8 -2 10 7 4 30 -13 57 -6 135 15 184 24 54 24 54
10 54 -19 0 -48 -84 -55 -162 -7 -75 -21 -107 -44 -93 -16 10 -12 35 5 29 12
-5 15 5 15 57 1 74 17 125 55 175 30 40 27 58 -6 28 -25 -22 -48 -64 -65 -119
-12 -38 -13 -38 -13 -10 -1 17 6 42 13 58 14 26 14 27 -12 28 l-27 0 25 10
c13 6 39 21 57 34 21 17 45 25 71 25 23 0 45 6 52 15 18 21 27 19 34 -9z m356
-299 c0 -4 -9 -3 -19 3 -25 13 -51 13 -51 0 0 -5 6 -10 14 -10 8 0 22 -7 31
-16 14 -15 13 -19 -15 -51 -25 -28 -29 -37 -19 -50 11 -12 14 -9 23 18 15 43
36 50 36 11 0 -23 -9 -37 -37 -60 -21 -16 -44 -27 -50 -25 -7 3 -13 -2 -13
-11 0 -10 -6 -13 -16 -9 -11 4 -15 0 -14 -13 4 -32 0 -40 -10 -24 -7 12 -12
12 -22 2 -6 -6 -20 -12 -29 -12 -9 0 -19 -10 -22 -22 -5 -18 -8 -20 -22 -8
-15 12 -18 12 -26 -3 -12 -21 -42 -22 -59 -2 -15 19 -5 32 28 37 28 4 30 22 2
23 -11 0 -20 5 -19 10 0 10 11 10 65 -1 24 -4 37 0 62 21 31 26 42 55 22 55
-5 0 -10 21 -10 46 0 37 -4 47 -20 51 -11 3 -17 9 -14 14 3 5 15 4 26 -2 17
-9 24 -8 33 5 7 9 24 16 39 16 14 0 26 5 26 10 0 14 -53 13 -68 -2 -6 -6 -14
-9 -18 -6 -9 10 35 30 91 43 47 11 51 11 62 -9 7 -12 12 -25 13 -29z m308 18
c-2 -1 -15 -5 -30 -9 -23 -5 -28 -3 -28 13 0 18 3 19 31 9 16 -6 29 -11 27
-13z m46 -71 c2 -21 7 -48 11 -59 7 -18 5 -17 -18 4 -15 13 -24 28 -21 33 3 5
0 15 -6 23 -10 12 -10 15 0 15 8 0 10 9 5 28 -6 25 -5 26 10 11 9 -9 18 -34
19 -55z m-800 -31 c-19 -18 -44 -33 -54 -33 -27 0 -16 21 20 42 17 9 30 24 30
33 0 13 3 13 20 3 19 -12 19 -14 -16 -45z m496 46 c0 -16 -20 -49 -30 -49 -5
0 -4 13 1 30 11 29 29 41 29 19z m172 -40 c25 -13 33 -48 15 -67 -14 -14 -18
-13 -41 1 -37 24 -59 21 -89 -13 -15 -16 -31 -30 -36 -30 -22 0 -21 23 3 51
14 17 26 38 26 48 0 10 3 21 7 25 8 8 91 -3 115 -15z m-23 -100 c-33 -20 -67
-4 -55 27 5 13 10 13 37 -2 25 -12 29 -18 18 -25z m-439 7 c0 -8 6 -17 13 -20
6 -3 -1 -4 -18 -3 -35 2 -50 37 -16 37 12 0 21 -6 21 -14z m-370 -16 c12 -8
12 -10 -5 -11 -11 0 -14 -3 -7 -6 19 -8 14 -23 -8 -23 -13 0 -20 7 -20 18 0
31 14 39 40 22z m-50 -25 c0 -10 -10 -15 -27 -15 -27 1 -27 1 -9 15 25 19 36
19 36 0z m1264 -99 c62 -26 85 -91 49 -135 -15 -18 -38 -24 -133 -36 -216 -28
-375 -42 -384 -34 -11 10 16 14 264 40 229 24 253 32 248 82 -4 40 -55 77
-107 77 -20 0 -142 -11 -271 -25 -265 -28 -280 -29 -280 -15 0 6 19 10 43 11
23 0 134 11 247 23 251 29 282 30 324 12z m4 -47 c28 -18 38 -48 21 -65 -9 -8
-100 -22 -257 -40 l-244 -27 -51 51 c-28 28 -49 53 -47 55 12 9 508 52 531 46
14 -3 35 -13 47 -20z m-593 -457 c15 -344 15 -425 1 -381 -2 8 -9 136 -15 284
-20 471 -21 542 -11 510 5 -16 16 -203 25 -413z m95 290 c0 -12 -7 -34 -16
-47 -15 -23 -15 -27 0 -50 18 -27 21 -80 6 -90 -15 -9 -12 -41 5 -55 11 -10
15 -36 15 -111 0 -54 -4 -101 -10 -104 -15 -9 -12 -51 5 -65 20 -16 19 -51 -2
-88 -17 -29 -17 -31 0 -50 9 -10 17 -26 17 -34 0 -14 -6 -13 -40 5 -30 17 -41
29 -44 52 -3 17 -10 172 -16 345 -6 173 -13 340 -17 370 l-5 55 50 -55 c30
-32 51 -65 52 -78z m-216 84 c14 -19 36 -36 48 -38 13 -2 24 -11 26 -20 3 -16
0 -16 -39 1 -24 11 -46 28 -50 39 -9 25 -26 36 -34 22 -3 -5 -1 -10 4 -10 6 0
11 -11 11 -24 0 -20 6 -25 40 -31 29 -5 40 -12 40 -24 0 -27 -9 -30 -38 -15
-22 11 -29 11 -42 -1 -20 -18 -30 -19 -30 -3 0 6 -7 19 -16 29 -14 16 -14 19
6 39 12 12 20 23 18 25 -5 6 -34 -19 -46 -40 -9 -16 -11 -17 -12 -3 0 28 11
48 29 48 9 0 22 9 29 20 17 28 26 25 56 -14z m782 -236 c-2 -56 -1 -83 4 -65
6 24 8 16 11 -40 1 -38 3 -81 2 -95 0 -14 3 -77 7 -140 8 -108 3 -140 -20
-140 -10 0 -34 665 -25 687 13 29 27 -100 21 -207z m-27 -140 c7 -179 15 -333
17 -342 3 -10 2 -19 -3 -19 -4 -1 -17 -3 -28 -5 -99 -19 -141 -21 -158 -6 -17
15 -15 18 25 59 l42 43 48 -47 c26 -26 51 -44 54 -40 7 7 -9 440 -23 622 -4
53 -2 77 4 70 6 -6 16 -151 22 -335z m-39 303 c0 -21 -3 -24 -12 -15 -22 22
-32 12 -11 -10 11 -13 23 -40 25 -61 3 -30 -1 -42 -24 -64 l-27 -26 -43 41
-43 42 60 60 c33 33 63 60 67 60 4 0 8 -12 8 -27z m-60 9 c0 -4 -19 -27 -42
-49 l-43 -42 -38 39 -39 38 49 7 c26 4 53 8 58 10 20 7 55 5 55 -3z m-689 -54
c17 11 28 10 65 -4 24 -9 44 -21 44 -25 0 -12 -1 -12 -45 7 -30 12 -44 13 -62
5 -30 -14 -37 -9 -57 32 l-16 32 25 -30 c22 -27 27 -29 46 -17z m457 -4 l-46
-47 -40 34 c-22 19 -39 36 -36 38 3 4 53 10 154 20 8 0 -6 -20 -32 -45z m91
-92 l-44 -50 -43 41 -42 41 47 48 47 48 40 -39 39 -39 -44 -50z m-195 74 c25
-25 42 -47 37 -51 -10 -6 -27 6 -76 54 -25 24 -32 41 -17 41 5 0 30 -20 56
-44z m-59 -16 c0 -18 -6 -26 -23 -28 -24 -4 -38 18 -28 44 3 9 15 14 28 12 17
-2 23 -10 23 -28z m59 -42 c28 -40 15 -98 -21 -98 -9 0 -11 12 -6 45 4 36 2
46 -11 51 -9 3 -13 10 -10 15 9 16 32 10 48 -13z m294 -107 c-24 -25 -44 -48
-46 -50 -1 -3 -21 13 -44 36 l-41 41 44 51 44 51 42 -42 43 -42 -42 -45z
m-193 69 l39 -40 -42 -42 -42 -43 -26 26 c-25 26 -25 27 -9 52 9 14 15 34 13
44 -3 19 8 43 21 43 4 0 25 -18 46 -40z m-135 1 c0 -10 -3 -21 -7 -25 -5 -4
-8 -20 -8 -34 0 -32 -34 -42 -55 -17 -16 19 2 45 31 45 15 0 19 7 19 31 0 17
4 28 10 24 6 -3 10 -14 10 -24z m440 -28 l0 -46 -25 23 -25 24 22 23 c12 13
23 23 25 23 2 0 3 -21 3 -47z m-28 -40 c37 -36 35 -60 -9 -105 l-37 -38 -37
36 -38 37 41 48 c23 27 44 49 47 49 2 0 18 -12 33 -27z m-179 -105 c-20 -21
-40 -38 -43 -38 -4 0 -26 17 -48 37 l-42 37 42 43 42 43 43 -42 43 -42 -37
-38z m-180 64 l27 -28 -40 -39 c-22 -21 -41 -37 -43 -34 -2 2 -7 27 -10 55 -9
77 18 96 66 46z m-82 -64 c0 -35 3 -75 5 -90 3 -16 1 -28 -4 -28 -10 0 -22 79
-22 143 0 20 5 37 10 37 6 0 10 -28 11 -62z m164 -18 l39 -40 -39 -40 -39 -40
-43 42 -43 42 37 38 c20 21 40 38 43 38 3 0 24 -18 45 -40z m185 5 l34 -35
-35 -37 c-18 -21 -35 -40 -37 -42 -1 -3 -20 13 -42 34 l-40 39 37 38 c20 21
40 38 43 38 3 0 21 -16 40 -35z m129 -44 c-2 -79 -2 -80 -43 -120 l-42 -41
-37 38 -36 37 75 83 c42 45 78 82 81 82 2 0 3 -36 2 -79z m-404 -51 c32 -33
36 -42 26 -54 -25 -29 -72 11 -79 67 -4 37 7 34 53 -13z m181 8 c19 -18 34
-37 34 -43 0 -6 -17 -28 -38 -48 l-38 -37 -39 40 -39 40 39 40 c21 22 41 40
43 40 2 0 19 -14 38 -32z m-486 -16 c10 -23 23 -35 42 -39 19 -4 28 -12 28
-24 0 -19 -1 -19 -40 1 -22 11 -40 27 -40 34 0 25 -27 38 -65 30 -47 -9 -52
-23 -25 -79 22 -45 44 -57 68 -33 14 14 85 -6 105 -30 6 -9 8 -13 2 -11 -77
36 -88 40 -98 30 -6 -6 -23 -11 -38 -11 -21 0 -31 9 -52 50 -29 56 -27 77 9
86 13 3 29 12 35 20 20 24 53 12 69 -24z m-32 -30 c2 -15 16 -28 39 -37 25
-11 33 -19 26 -26 -7 -7 -18 -6 -36 2 -21 10 -29 9 -42 -5 -19 -18 -35 -13
-35 11 0 9 -7 24 -16 34 -20 22 -11 39 16 32 12 -3 20 0 20 7 0 20 25 4 28
-18z m280 6 c16 -16 15 -23 -4 -42 -12 -12 -20 -13 -35 -6 -10 6 -19 16 -19
23 0 16 20 37 35 37 6 0 16 -5 23 -12z m144 -140 c-38 -39 -43 -41 -58 -26
-13 13 -14 20 -4 37 6 13 8 35 5 52 -4 18 -2 36 6 45 11 13 18 10 53 -25 l41
-41 -43 -42z m188 87 l34 -35 -42 -43 -42 -42 -37 38 -37 37 39 40 c21 22 42
40 45 40 3 0 21 -16 40 -35z m138 -43 l3 -77 -43 42 -42 43 34 35 c19 19 36
35 39 35 4 0 7 -35 9 -78z m-408 37 c15 -26 12 -62 -6 -88 -12 -16 -19 -20
-27 -12 -8 8 -8 14 1 23 17 17 15 55 -5 66 -21 12 -10 44 12 36 9 -4 20 -15
25 -25z m-70 -39 c0 -16 -4 -30 -10 -30 -5 0 -10 14 -10 30 0 17 5 30 10 30 6
0 10 -13 10 -30z m258 -107 c-26 -28 -107 -33 -128 -8 -11 14 -7 23 30 60 l44
45 38 -37 38 -37 -22 -23z m-243 37 c0 -18 -6 -26 -23 -28 -24 -4 -38 18 -28
44 3 9 15 14 28 12 17 -2 23 -10 23 -28z m74 -14 c9 -11 5 -19 -20 -40 -17
-14 -35 -24 -40 -20 -17 10 -9 43 13 58 27 20 32 20 47 2z m451 -6 c0 -25 -67
-39 -275 -59 -121 -12 -232 -23 -247 -24 -25 -3 -28 0 -28 25 0 15 5 28 10 28
6 0 10 -9 10 -20 0 -24 -23 -24 244 1 169 16 228 25 251 39 37 23 35 22 35 10z
m-412 -38 c2 -7 -7 -12 -23 -12 -24 0 -26 2 -15 15 14 17 31 16 38 -3z"/>
<path d="M1890 3403 c-51 -19 -75 -77 -50 -123 8 -14 3 -42 -16 -107 -30 -104
-41 -251 -25 -338 27 -146 137 -288 274 -355 37 -18 67 -35 67 -38 0 -3 -9
-16 -21 -28 -17 -18 -19 -26 -10 -43 7 -11 23 -24 36 -27 25 -6 31 -15 18 -27
-3 -4 -5 -111 -4 -237 2 -159 -1 -230 -8 -230 -6 0 -30 -17 -52 -37 -44 -40
-69 -86 -69 -128 0 -16 -6 -25 -15 -25 -23 0 -18 -23 15 -68 l30 -42 -40 0
-40 0 0 -54 0 -54 -42 3 -43 3 -3 51 -3 51 -90 0 -89 0 0 -50 0 -50 -54 0 -55
0 -3 48 -3 47 -87 3 -88 3 0 -48 0 -48 -60 -1 -60 -1 0 36 c0 54 -10 61 -88
68 l-72 6 0 -52 0 -51 -54 0 c-58 0 -66 7 -66 61 0 22 -5 29 -20 29 -25 0 -25
0 6 62 23 45 24 53 11 63 -8 6 -20 29 -26 50 -16 60 -45 100 -86 119 l-37 18
3 231 3 232 -27 3 c-21 3 -28 -2 -33 -22 l-6 -26 -114 0 -114 0 -2 -112 c0
-62 -1 -122 -2 -133 -1 -18 6 -20 59 -22 33 -2 87 -5 121 -8 l61 -6 -3 -72
c-3 -68 -5 -73 -35 -94 -40 -28 -69 -71 -69 -104 0 -14 -11 -36 -25 -49 l-25
-23 31 -55 31 -54 -13 -366 -12 -366 23 -18 c17 -14 39 -18 104 -18 44 0 98 5
120 9 27 7 50 5 80 -5 43 -16 214 -14 481 4 66 4 156 6 200 4 44 -2 193 -5
330 -8 193 -3 254 -2 268 8 16 12 16 38 8 373 l-9 360 36 53 35 52 -20 23
c-11 12 -23 40 -26 62 -8 48 -32 82 -80 114 l-37 24 0 79 0 78 125 0 126 0 -3
133 -3 132 -115 3 c-76 2 -117 7 -122 15 -15 23 -8 27 25 14 23 -9 38 -10 55
-2 21 9 23 15 19 50 -5 33 16 96 139 420 80 209 149 382 154 383 12 5 13 39 1
46 -4 3 -4 23 2 45 9 32 8 44 -7 65 -35 55 -115 58 -220 10 -35 -16 -83 -28
-120 -31 -70 -6 -101 6 -171 63 -22 18 -53 38 -68 43 -29 11 -111 14 -137 4z
m111 -13 c19 -5 58 -30 87 -54 28 -24 68 -50 88 -56 53 -18 137 -7 227 29 43
17 93 31 111 31 61 0 100 -51 80 -103 -5 -13 -10 -13 -35 -3 -16 7 -37 22 -45
34 -20 29 -50 28 -131 -5 -55 -23 -84 -28 -149 -28 -72 0 -86 3 -130 30 -27
17 -59 46 -72 65 -30 44 -50 56 -72 42 -10 -6 -27 -8 -39 -5 -12 3 -28 0 -36
-7 -17 -14 -20 -60 -5 -60 6 0 10 7 8 16 -4 24 30 43 42 24 9 -13 12 -13 24 3
17 22 42 22 50 0 5 -11 0 -23 -14 -33 -14 -10 -19 -22 -14 -33 5 -14 0 -17
-38 -17 -58 0 -88 22 -88 64 0 37 14 53 57 66 38 11 52 11 94 0z m114 -166
c73 -37 156 -35 263 6 45 17 90 29 100 27 14 -4 13 -6 -6 -12 -19 -6 -22 -12
-17 -34 9 -34 14 -39 25 -21 7 11 12 12 20 4 8 -8 -17 -77 -86 -242 l-97 -232
-21 37 c-19 34 -131 280 -186 407 -11 27 -23 46 -26 43 -7 -7 183 -443 208
-477 17 -24 18 -28 3 -63 -12 -29 -21 -37 -40 -37 -22 0 -24 3 -15 19 12 24
13 51 1 51 -5 0 -12 -16 -15 -35 -4 -19 -13 -35 -20 -35 -28 0 -137 63 -176
102 -82 82 -110 176 -110 370 l0 127 38 3 c32 3 37 7 38 28 1 14 2 29 3 34 0
5 16 -3 34 -18 17 -14 55 -38 82 -52z m-210 -139 c6 -203 7 -215 34 -258 33
-54 46 -133 30 -181 -8 -22 -20 -41 -27 -44 -10 -3 -9 4 3 29 29 54 7 165 -43
222 -11 12 -12 17 -2 17 25 0 -12 30 -53 42 l-40 12 6 75 c5 63 30 175 52 239
3 8 12 12 20 10 13 -2 16 -31 20 -163z m643 119 c28 -10 52 -22 52 -26 0 -9
-111 30 -125 45 -7 7 -5 8 5 5 8 -3 39 -14 68 -24z m24 -34 c6 0 7 -7 3 -17
-4 -10 -45 -117 -91 -237 -46 -120 -86 -221 -88 -224 -8 -8 -56 8 -56 18 0 6
38 101 84 212 47 112 89 216 95 232 8 19 16 26 27 22 9 -3 20 -6 26 -6z m-688
-291 c8 -9 6 -10 -7 -5 -11 3 -30 9 -43 12 -13 3 -24 10 -24 14 0 11 61 -6 74
-21z m-30 -13 c28 -12 76 -62 76 -79 0 -16 -38 9 -52 34 -12 20 -25 29 -43 29
-16 0 -25 6 -25 15 0 18 2 18 44 1z m10 -52 c3 -8 3 -27 0 -41 -6 -23 -5 -24
14 -12 17 10 23 10 37 -1 26 -22 15 -55 -21 -58 -29 -3 -32 0 -51 50 -11 29
-18 59 -16 66 7 17 30 15 37 -4z m215 -148 c22 -15 65 -36 94 -47 97 -38 111
-74 53 -136 l-34 -37 -93 46 c-52 25 -104 57 -117 71 -21 22 -22 26 -7 53 8
16 15 51 15 78 l0 49 24 -26 c13 -13 42 -37 65 -51z m-137 -2 c-7 -34 -20 -49
-23 -26 0 4 -5 13 -11 19 -8 9 -4 18 13 32 13 11 25 18 27 17 1 -2 -1 -21 -6
-42z m446 10 c3 -2 -97 -274 -104 -282 -1 -2 -12 -1 -24 3 -21 7 -21 7 5 31
48 44 69 129 44 175 -7 14 -7 29 2 54 11 31 15 33 43 28 17 -3 33 -7 34 -9z
m-78 -123 c0 -31 -31 -101 -51 -118 -8 -7 -25 -10 -37 -7 -20 6 -20 8 13 38
43 41 52 74 30 117 -16 32 -16 33 0 18 9 -9 21 -32 25 -50 l8 -34 1 30 c1 17
-6 42 -15 55 l-16 25 21 -24 c12 -13 21 -35 21 -50z m-10 -203 c0 -10 -1 -18
-3 -18 -6 0 -162 62 -166 65 -2 3 1 11 8 19 10 12 23 9 86 -18 52 -22 75 -36
75 -48z m-87 -4 c38 -16 64 -30 59 -32 -6 -2 -43 13 -84 33 -83 40 -74 40 25
-1z m-1543 -119 c0 -33 -2 -35 -35 -35 -33 0 -35 2 -35 35 0 33 2 35 35 35 33
0 35 -2 35 -35z m70 -10 l0 -45 40 0 c38 0 40 -2 40 -30 0 -28 -2 -30 -40 -30
-40 0 -40 0 -40 -40 0 -38 -2 -40 -30 -40 -28 0 -30 2 -30 40 0 40 0 40 -40
40 -38 0 -40 2 -40 30 0 29 2 30 45 30 l45 0 0 45 c0 41 2 45 25 45 23 0 25
-4 25 -45z m80 10 c0 -32 -2 -35 -30 -35 -28 0 -30 3 -30 35 0 32 2 35 30 35
28 0 30 -3 30 -35z m30 -165 c0 -119 -4 -200 -9 -200 -6 0 -9 80 -8 200 1 110
5 200 10 200 4 0 7 -90 7 -200z m1337 -102 c-1 -57 -3 -11 -3 102 0 113 2 159
3 103 2 -57 2 -149 0 -205z m96 260 l35 -42 51 43 c28 23 55 40 61 36 19 -12
10 -39 -27 -77 l-37 -38 37 -38 c40 -41 46 -59 21 -69 -10 -4 -29 8 -54 32
l-39 38 -45 -36 c-24 -21 -51 -37 -60 -37 -28 0 -17 43 21 82 l37 38 -37 38
c-20 21 -37 46 -37 55 0 31 37 18 73 -25z m77 17 c-13 -14 -29 -25 -36 -25 -6
0 -19 11 -28 25 l-16 25 52 0 51 0 -23 -25z m-122 -112 c-12 -13 -24 -23 -27
-23 -4 0 -5 21 -3 46 l4 45 24 -22 24 -23 -22 -23z m202 10 c0 -45 0 -46 -20
-28 -11 10 -20 23 -20 28 0 10 29 47 37 47 1 0 3 -21 3 -47z m-1780 -74 c0
-26 -4 -29 -30 -29 -27 0 -30 3 -30 33 0 32 2 33 30 29 25 -4 30 -9 30 -33z
m160 -4 c0 -32 -2 -35 -30 -35 -28 0 -30 3 -30 35 0 32 2 35 30 35 28 0 30 -3
30 -35z m1535 -5 c18 -20 17 -20 -30 -20 -47 0 -48 0 -30 20 10 11 23 20 30
20 7 0 20 -9 30 -20z m-1511 -243 c-7 -18 -24 -23 -24 -7 0 6 -8 5 -20 -2 -12
-8 -20 -24 -20 -40 0 -16 -4 -28 -10 -28 -15 0 -12 42 5 64 31 41 84 51 69 13z
m36 24 c0 -5 9 -11 20 -14 30 -8 24 -24 -10 -24 -25 0 -30 4 -30 24 0 13 5 23
10 23 6 0 10 -4 10 -9z m1337 -18 c9 -23 -8 -29 -23 -9 -12 17 -14 18 -14 3 0
-9 -4 -17 -10 -17 -11 0 -14 33 -4 42 9 10 45 -4 51 -19z m-1397 -59 c0 -26
-17 -33 -26 -9 -8 20 3 48 16 40 5 -3 10 -17 10 -31z m40 0 c0 -26 -17 -33
-26 -9 -8 20 3 48 16 40 5 -3 10 -17 10 -31z m46 -10 c-3 -8 -10 -14 -16 -14
-11 0 -14 43 -3 54 10 10 26 -23 19 -40z m1214 6 c0 -16 -4 -30 -10 -30 -5 0
-10 14 -10 30 0 17 5 30 10 30 6 0 10 -13 10 -30z m43 -8 c-1 -24 2 -32 15
-32 12 0 13 -3 5 -11 -8 -8 -17 -5 -32 10 -21 21 -27 51 -14 65 14 14 28 -2
26 -32z m37 8 c0 -16 -4 -30 -10 -30 -5 0 -10 14 -10 30 0 17 5 30 10 30 6 0
10 -13 10 -30z m38 -6 c2 -16 8 -33 13 -38 12 -13 12 -56 -1 -56 -5 0 -10 13
-10 29 0 16 -7 34 -15 41 -18 15 -20 63 -2 58 6 -3 13 -18 15 -34z m-1490 1
c-4 -17 -1 -25 8 -25 8 0 14 -7 14 -15 0 -8 -6 -15 -14 -15 -16 0 -31 53 -21
70 11 18 17 11 13 -15z m1532 -5 c0 -16 -4 -30 -10 -30 -5 0 -10 6 -10 14 0 8
-3 21 -6 30 -4 11 -1 16 10 16 11 0 16 -9 16 -30z m-1480 -49 c0 -16 -8 -35
-17 -42 -15 -12 -16 -12 -10 4 4 10 7 30 7 43 0 13 5 24 10 24 6 0 10 -13 10
-29z m125 9 c3 -11 3 -24 0 -30 -3 -5 -1 -10 6 -10 7 0 9 -3 6 -6 -11 -12 -37
18 -37 42 0 29 16 32 25 4z m1145 -2 c0 6 7 12 15 12 8 0 15 -9 15 -19 0 -14
-7 -19 -25 -17 -18 1 -25 7 -25 21 0 17 2 17 10 5 6 -10 10 -11 10 -2z m70
-18 c0 -20 -5 -30 -15 -30 -15 0 -21 40 -8 53 14 15 23 6 23 -23z m158 -2 c-5
-32 -28 -35 -28 -4 0 17 5 26 16 26 10 0 14 -7 12 -22z m-1418 2 c11 -7 5 -10
-23 -10 -23 0 -36 4 -32 10 8 13 35 13 55 0z m126 -21 c3 -5 -4 -9 -15 -9 -12
0 -21 -4 -21 -10 0 -5 -4 -10 -10 -10 -7 0 -8 31 -1 47 3 4 42 -11 47 -18z
m1214 11 c0 -5 -13 -10 -30 -10 -16 0 -30 5 -30 10 0 6 14 10 30 10 17 0 30
-4 30 -10z m-132 -32 c4 -20 -48 -35 -59 -17 -4 7 -5 18 -2 23 4 6 8 6 10 -1
2 -6 13 -8 24 -6 16 5 18 8 7 15 -10 8 -10 9 2 5 8 -2 16 -11 18 -19z m-1373
-8 c-4 -7 8 -8 34 -4 44 7 58 -9 19 -20 -38 -10 -53 -7 -66 14 -10 17 -10 20
4 20 8 0 12 -5 9 -10z m251 -14 c28 -21 12 -29 -33 -17 -21 6 -57 11 -80 11
-24 0 -43 5 -43 10 0 16 133 12 156 -4z m1273 -1 c12 -11 -14 -20 -48 -17 -28
3 -41 9 -41 19 0 12 8 13 43 8 23 -4 44 -9 46 -10z m-102 -7 c-2 -7 -16 -13
-30 -13 -15 1 -27 -3 -27 -7 0 -4 -7 -8 -15 -8 -41 0 9 36 53 39 15 1 22 -4
19 -11z m158 -8 c19 -7 25 -14 18 -21 -14 -14 -63 6 -63 26 0 9 4 14 9 11 4
-3 21 -10 36 -16z m-1445 -10 c0 -5 -8 -11 -17 -12 -77 -6 -103 -6 -103 4 0 5
7 8 15 5 8 -4 17 -2 20 3 8 13 85 13 85 0z m68 0 c6 0 12 -4 12 -10 0 -5 -16
-10 -35 -10 -26 0 -35 4 -35 16 0 12 6 15 23 10 12 -3 28 -6 35 -6z m1270 -17
c2 -9 -9 -13 -37 -13 -41 0 -56 14 -23 23 28 8 55 3 60 -10z m92 -7 c8 -3 16
-5 18 -5 2 -1 0 -6 -3 -11 -4 -7 -11 -8 -18 -1 -13 10 -16 11 -52 11 -14 0
-25 5 -25 11 0 10 33 8 80 -5z m-1342 -20 c7 -4 12 -31 12 -68 0 -58 -1 -60
-22 -54 -13 3 -60 6 -105 6 l-83 0 0 59 c0 38 5 61 13 65 17 8 170 1 185 -8z
m66 -77 l7 -59 74 0 75 0 0 66 c0 56 2 65 16 60 9 -3 33 -6 54 -6 l37 0 7 -60
7 -60 79 0 80 0 0 60 0 60 70 0 69 0 3 -62 3 -62 70 1 70 1 3 61 3 61 69 0 70
0 0 -60 c0 -59 1 -60 28 -60 15 0 44 -3 65 -6 l37 -7 0 67 0 66 36 0 37 0 -7
-61 c-3 -34 -6 -71 -6 -83 l0 -21 -287 6 c-159 4 -404 8 -545 9 l-257 3 -3 74
c-3 81 -3 84 17 77 7 -3 15 -31 19 -65z m1267 61 c15 -9 19 -22 19 -68 l0 -57
-105 0 -105 0 0 30 c0 17 3 47 6 68 l7 37 79 0 c44 0 88 -5 99 -10z m-1358
-116 c20 -4 37 -10 37 -14 0 -4 -19 -3 -42 2 -24 5 -71 8 -105 6 -35 -2 -63 0
-63 4 0 9 119 10 173 2z m-73 -38 c0 -22 -5 -24 -55 -28 -30 -1 -55 0 -55 5 0
4 5 7 10 7 6 0 10 6 10 14 0 14 21 22 68 25 17 1 22 -4 22 -23z m85 9 c18 -4
25 -12 25 -28 0 -23 -1 -23 -50 -13 -43 8 -50 13 -50 33 0 20 4 23 25 18 14
-3 36 -7 50 -10z m1347 7 c10 -4 -30 -7 -87 -7 -57 0 -96 3 -87 7 9 4 49 7 87
7 39 0 78 -3 87 -7z m1 -23 c9 0 17 -7 17 -15 0 -11 -6 -13 -21 -9 -26 9 -165
9 -179 0 -5 -3 -10 2 -10 11 0 10 3 15 6 12 3 -3 17 -2 32 2 15 5 52 6 82 4
30 -3 63 -5 73 -5z m-283 -20 c48 -5 -9 -6 -155 -4 -126 3 -373 5 -547 5 -223
0 -318 3 -318 11 0 12 890 2 1020 -12z m-1122 -15 c41 -11 26 -34 -23 -34 -38
0 -45 3 -45 20 0 21 23 26 68 14z m152 -14 c0 -15 -7 -20 -25 -20 -18 0 -25 5
-25 20 0 15 7 20 25 20 18 0 25 -5 25 -20z m100 0 c0 -17 -7 -20 -40 -20 -33
0 -40 3 -40 20 0 17 7 20 40 20 33 0 40 -3 40 -20z m110 -6 c0 -10 -13 -14
-45 -14 -36 0 -45 3 -45 18 0 14 7 17 45 14 30 -3 45 -9 45 -18z m900 11 c0
-9 -9 -15 -25 -15 -26 0 -34 15 -12 23 23 10 37 7 37 -8z m98 -3 c3 -9 -9 -12
-42 -10 -32 1 -46 6 -46 15 0 18 82 14 88 -5z m62 -9 c0 -10 -6 -13 -16 -9 -9
3 -20 6 -25 6 -5 0 -9 6 -9 14 0 9 8 12 25 8 14 -2 25 -11 25 -19z m-1500 3
c0 -7 -12 -16 -27 -19 -33 -6 -38 -3 -30 18 8 19 57 20 57 1z m154 -2 c21 -21
13 -32 -19 -26 -16 3 -25 11 -25 23 0 23 23 25 44 3z m386 0 c0 -12 -9 -14
-42 -12 -59 4 -63 28 -4 28 35 0 46 -4 46 -16z m226 -15 c-3 -17 -6 -38 -6
-45 0 -9 -11 -14 -29 -14 -23 0 -30 5 -34 28 -3 15 -9 35 -12 45 -6 15 -1 17
40 17 l48 0 -7 -31z m194 11 c0 -25 -21 -25 -62 0 l-33 20 48 0 c40 0 47 -3
47 -20z m110 0 c0 -17 -7 -20 -50 -20 -43 0 -50 3 -50 20 0 17 7 20 50 20 43
0 50 -3 50 -20z m120 -1 c0 -18 -5 -20 -52 -17 -41 2 -54 7 -56 21 -3 14 5 17
52 17 50 0 56 -2 56 -21z m80 1 c0 -16 -7 -20 -35 -20 -28 0 -35 4 -35 20 0
16 7 20 35 20 28 0 35 -4 35 -20z m-632 -27 c9 -29 9 -39 -1 -45 -19 -12 -23
-10 -50 26 l-26 33 22 11 c36 17 43 14 55 -25z m233 27 c24 -13 24 -29 0 -57
-21 -26 -32 -28 -48 -12 -7 7 -8 21 0 45 11 37 18 40 48 24z m-193 -38 c2 -12
-1 -22 -7 -22 -6 0 -11 4 -11 9 0 5 -3 17 -7 27 -4 12 -2 15 8 12 8 -2 15 -14
17 -26z m132 24 c0 -2 -3 -11 -6 -20 -9 -24 -33 -20 -27 4 4 16 33 30 33 16z
m570 -6 c0 -13 -12 -17 -62 -24 -29 -5 -38 -2 -38 8 0 16 19 23 68 25 17 0 32
-4 32 -9z m98 4 c22 -6 32 -34 11 -34 -25 0 -99 23 -99 31 0 10 54 12 88 3z
m-1448 -18 c0 -14 -29 -26 -68 -26 -30 0 -24 22 9 31 40 11 59 10 59 -5z m240
6 c0 -14 -46 -34 -66 -30 -10 2 -20 11 -22 21 -3 14 4 17 42 17 25 0 46 -4 46
-8z m130 -12 c0 -15 -7 -20 -28 -20 -27 0 -52 15 -52 32 0 4 18 8 40 8 33 0
40 -3 40 -20z m110 12 c0 -18 -26 -32 -62 -32 -31 0 -38 4 -38 20 0 17 7 20
50 20 28 0 50 -4 50 -8z m47 -9 c4 -10 16 -25 28 -35 11 -9 17 -20 13 -24 -9
-9 -67 46 -68 64 0 18 20 15 27 -5z m-487 -7 c0 -8 -7 -17 -16 -20 -24 -9 -36
-7 -29 4 4 6 11 7 17 4 7 -5 9 -1 5 9 -4 11 -1 17 8 17 8 0 15 -6 15 -14z m77
-1 c3 -9 3 -18 1 -21 -8 -8 -58 15 -58 26 0 16 50 12 57 -5z m176 -15 c10 -16
22 -30 28 -30 5 0 9 -4 9 -10 0 -20 -20 -9 -35 20 -8 16 -20 29 -26 27 -7 -1
-14 4 -16 11 -9 25 23 11 40 -18z m607 25 c0 -9 -65 -64 -70 -59 -2 3 9 18 25
34 28 27 45 37 45 25z m80 -15 c0 -13 -7 -20 -20 -20 -11 0 -20 2 -20 4 0 2
-3 11 -6 20 -5 12 0 16 20 16 19 0 26 -5 26 -20z m100 14 c0 -13 -35 -33 -57
-34 -16 0 -23 6 -23 20 0 17 7 20 40 20 22 0 40 -3 40 -6z m120 -14 c0 -23
-38 -28 -58 -8 -20 20 -14 28 23 28 28 0 35 -4 35 -20z m40 -1 c0 -24 -23 -21
-28 4 -2 10 3 17 12 17 10 0 16 -9 16 -21z m143 -9 c21 -25 22 -37 2 -20 -24
20 -42 6 -37 -29 3 -20 0 -31 -8 -31 -6 0 -11 10 -10 23 1 12 2 28 1 35 -2 20
-39 14 -51 -8 -13 -23 -30 -18 -30 9 0 14 9 20 38 23 20 3 39 1 40 -4 6 -14
22 -9 22 7 0 21 12 19 33 -5z m-1154 -24 c-7 -14 -19 -26 -26 -26 -11 0 -9 8
7 31 26 35 36 33 19 -5z m704 5 l17 -29 -41 -16 c-63 -26 -79 -3 -32 46 15 15
29 28 33 28 3 0 13 -13 23 -29z m-410 -9 c38 -40 23 -59 -29 -35 -21 9 -41 19
-43 20 -5 4 30 43 39 43 3 0 18 -12 33 -28z m578 8 c11 0 22 -7 26 -15 7 -21
-6 -33 -16 -16 -6 9 -11 10 -15 2 -12 -20 -28 -12 -21 10 5 15 4 19 -4 15 -6
-4 -11 -14 -11 -22 0 -8 -4 -14 -8 -14 -20 0 -19 13 1 36 12 14 23 20 25 15 2
-6 12 -11 23 -11z m369 0 c0 -11 -5 -20 -10 -20 -6 0 -20 9 -32 20 l-22 20 32
0 c25 0 32 -4 32 -20z m-1520 -5 c0 -16 -27 -32 -37 -22 -3 4 -3 13 0 22 8 20
37 20 37 0z m243 3 c-21 -27 -23 -49 -6 -46 29 5 27 -29 -2 -34 -24 -5 -25 -3
-25 43 0 43 3 49 21 49 16 0 19 -3 12 -12z m245 -8 c-9 -15 -24 -20 -53 -20
-29 0 -44 5 -53 20 -12 19 -10 20 53 20 63 0 65 -1 53 -20z m226 14 c29 -11
16 -23 -25 -22 -38 0 -39 1 -17 13 13 7 24 13 25 14 1 1 8 -2 17 -5z m100 0
c25 -9 19 -24 -9 -24 -24 0 -32 10 -18 23 8 8 8 8 27 1z m-744 -29 c0 -16 -6
-25 -15 -25 -18 0 -18 5 -5 31 14 26 20 24 20 -6z m38 -3 c2 -15 -2 -22 -12
-22 -11 0 -16 9 -16 26 0 31 23 28 28 -4z m80 5 c2 -11 -3 -17 -15 -17 -17 -1
-17 -1 0 -11 9 -5 17 -20 17 -32 -1 -22 -1 -22 -12 -2 -6 11 -15 22 -19 25 -4
3 -5 18 -2 33 6 29 26 32 31 4z m895 16 c-7 -2 -13 -11 -13 -19 0 -8 -10 -14
-25 -14 -14 0 -25 2 -25 4 0 2 -3 11 -6 20 -5 13 2 16 37 15 24 0 38 -3 32 -6z
m197 -13 c0 -15 -7 -20 -25 -20 -15 0 -25 6 -25 14 0 8 -6 17 -12 19 -7 3 4 6
25 6 31 1 37 -2 37 -19z m160 -9 c14 -27 13 -31 -10 -31 -15 0 -20 7 -20 25 0
30 15 33 30 6z m-1430 -8 c-1 -5 -12 -21 -25 -38 l-25 -30 0 32 c0 22 5 33 18
36 28 7 32 7 32 0z m820 -3 c0 -5 -13 -10 -30 -10 -16 0 -30 5 -30 10 0 6 14
10 30 10 17 0 30 -4 30 -10z m508 -17 c-4 -23 -38 -25 -38 -3 0 19 18 31 33
23 4 -3 7 -12 5 -20z m182 3 c0 -16 -5 -23 -15 -22 -26 4 -30 17 -11 32 26 18
26 18 26 -10z m-1215 -16 c0 -13 -6 -25 -12 -27 -9 -3 -13 6 -13 27 0 21 4 30
13 28 6 -3 12 -15 12 -28z m45 0 c0 -20 -5 -30 -15 -30 -10 0 -15 10 -15 30 0
20 5 30 15 30 10 0 15 -10 15 -30z m70 10 c0 -23 -35 -28 -43 -6 -7 18 1 26
25 26 11 0 18 -7 18 -20z m98 0 c2 -11 -7 -15 -37 -15 -43 0 -57 8 -46 25 10
16 79 8 83 -10z m382 -22 c0 -4 -7 -8 -15 -8 -10 0 -15 10 -15 28 1 26 1 26
15 8 8 -11 15 -23 15 -28z m147 17 c3 -9 2 -19 -2 -23 -4 -4 -10 -1 -12 6 -3
6 -16 12 -29 12 -13 0 -24 5 -24 10 0 17 60 12 67 -5z m43 -5 c0 -11 -7 -20
-15 -20 -8 0 -15 9 -15 20 0 11 7 20 15 20 8 0 15 -9 15 -20z m60 -5 c0 -16
-6 -25 -15 -25 -9 0 -15 9 -15 25 0 16 6 25 15 25 9 0 15 -9 15 -25z m40 0 c0
-16 -6 -25 -15 -25 -9 0 -15 9 -15 25 0 16 6 25 15 25 9 0 15 -9 15 -25z m60
5 c0 -13 -7 -20 -20 -20 -13 0 -20 7 -20 20 0 13 7 20 20 20 13 0 20 -7 20
-20z m-1180 -20 c0 -20 -5 -30 -15 -30 -10 0 -15 10 -15 30 0 20 5 30 15 30
10 0 15 -10 15 -30z m48 -3 c3 -22 -1 -27 -17 -27 -15 0 -21 6 -21 23 0 46 33
49 38 4z m451 24 c9 -6 10 -10 2 -16 -15 -8 -41 1 -41 15 0 12 20 13 39 1z
m71 -6 c0 -8 -9 -15 -20 -15 -11 0 -20 7 -20 15 0 8 9 15 20 15 11 0 20 -7 20
-15z m90 0 c0 -16 -35 -21 -44 -6 -8 12 4 21 26 21 10 0 18 -7 18 -15z m100 0
c0 -9 -9 -15 -25 -15 -16 0 -25 6 -25 15 0 9 9 15 25 15 16 0 25 -6 25 -15z
m570 -30 c0 -34 -12 -46 -25 -24 -9 14 3 59 15 59 6 0 10 -16 10 -35z m50 0
c0 -18 -5 -25 -20 -25 -15 0 -20 7 -20 25 0 18 5 25 20 25 15 0 20 -7 20 -25z
m-887 -2 c4 -2 2 -13 -3 -24 -8 -13 -21 -19 -45 -19 -32 0 -35 2 -35 30 0 30
1 31 38 24 20 -4 40 -9 45 -11z m457 -18 c0 -38 -1 -38 -72 -18 -26 7 -22 41
5 46 60 12 67 9 67 -28z m304 19 c8 -21 8 -21 -9 -28 -11 -4 -15 1 -15 19 0
28 15 33 24 9z m196 -9 c0 -18 -5 -25 -19 -25 -17 0 -18 3 -8 25 15 32 27 32
27 0z m-1523 -19 c-4 -9 -15 -16 -26 -16 -15 0 -19 5 -14 18 4 9 11 20 17 24
15 10 30 -7 23 -26z m263 20 c0 -10 14 -16 43 -19 30 -2 23 -4 -25 -5 -62 -2
-68 0 -68 18 0 15 7 20 25 20 15 0 25 -6 25 -14z m206 -6 c0 -18 -7 -20 -61
-19 -33 1 -52 3 -42 6 9 2 17 11 17 19 0 10 12 14 43 14 36 0 43 -3 43 -20z
m174 10 c0 -5 -14 -10 -31 -10 -17 0 -28 4 -24 10 3 6 17 10 31 10 13 0 24 -4
24 -10z m190 0 c0 -5 -13 -10 -30 -10 -16 0 -30 5 -30 10 0 6 14 10 30 10 17
0 30 -4 30 -10z m270 -9 c0 -14 8 -21 28 -24 15 -2 -1 -5 -35 -6 -61 -1 -63 0
-63 24 0 22 4 25 35 25 28 0 35 -4 35 -19z m180 -6 c0 -24 -2 -25 -62 -24 -35
1 -51 4 -35 6 19 3 27 10 27 24 0 15 7 19 35 19 31 0 35 -3 35 -25z m-1090
-15 c0 -33 -2 -35 -31 -20 -15 9 -17 15 -9 30 17 31 40 25 40 -10z m1000 20
c0 -5 -18 -10 -40 -10 -22 0 -40 5 -40 10 0 6 18 10 40 10 22 0 40 -4 40 -10z
m-552 -21 c-2 -6 -7 -10 -11 -10 -4 1 -16 1 -27 1 -11 0 -20 5 -20 10 0 6 14
10 31 10 17 0 29 -5 27 -11z m92 -4 c0 -8 -9 -15 -20 -15 -11 0 -20 7 -20 15
0 8 9 15 20 15 11 0 20 -7 20 -15z m100 0 c0 -9 -9 -15 -25 -15 -16 0 -25 6
-25 15 0 9 9 15 25 15 16 0 25 -6 25 -15z m83 0 c-4 -15 -36 -12 -41 3 -3 9 3
13 19 10 13 -1 23 -7 22 -13z m-810 -2 c-18 -2 -48 -2 -65 0 -18 2 -4 4 32 4
36 0 50 -2 33 -4z m1235 -15 c2 -10 -6 -17 -23 -20 -19 -4 -25 -1 -25 13 0 30
42 36 48 7z m-1080 -10 c3 -13 -3 -18 -22 -18 -20 0 -26 5 -26 21 0 15 5 20
22 17 13 -2 24 -11 26 -20z m162 2 c0 -18 -7 -20 -75 -20 -68 0 -75 2 -75 20
0 18 7 20 75 20 68 0 75 -2 75 -20z m50 10 c0 -5 9 -10 20 -10 11 0 20 -4 20
-10 0 -5 -15 -10 -34 -10 -36 0 -52 12 -41 30 3 6 13 10 21 10 8 0 14 -4 14
-10z m990 0 c0 -5 -22 -10 -50 -10 -27 0 -50 5 -50 10 0 6 23 10 50 10 28 0
50 -4 50 -10z m-1282 -21 c25 -9 25 -37 1 -30 -80 21 -120 26 -164 19 -54 -8
-60 -6 -52 15 4 12 24 14 99 9 51 -2 103 -9 116 -13z m382 0 c0 -14 -5 -19
-17 -17 -26 5 -29 38 -4 38 15 0 21 -6 21 -21z m418 4 c2 -8 -6 -13 -22 -13
-17 0 -26 5 -26 16 0 19 41 16 48 -3z m72 3 c0 -10 -10 -14 -30 -14 -16 1 -30
5 -30 9 0 7 10 10 53 18 4 0 7 -5 7 -13z m190 -3 c0 -16 -9 -18 -85 -15 -65 3
-85 7 -85 18 0 11 18 14 85 14 74 0 85 -2 85 -17z m40 -4 c0 -24 -23 -21 -28
4 -2 10 3 17 12 17 10 0 16 -9 16 -21z m-640 -26 l22 -38 19 24 c10 13 19 29
19 37 0 24 14 15 30 -19 19 -41 42 -41 54 1 10 36 22 41 31 13 3 -10 14 -26
25 -36 19 -17 20 -16 36 19 10 20 24 36 31 36 11 0 14 -22 13 -102 -2 -155 8
-143 -123 -145 -62 -1 -136 -5 -164 -9 l-53 -7 0 132 c0 122 1 131 19 131 11
0 28 -15 41 -37z m40 24 c0 -21 -12 -28 -27 -16 -19 16 -16 29 7 29 11 0 20
-6 20 -13z m190 6 c0 -5 -5 -15 -10 -23 -9 -13 -11 -13 -20 0 -15 22 -12 30
10 30 11 0 20 -3 20 -7z m480 -33 c0 -11 -3 -20 -7 -20 -5 0 -18 -3 -30 -6
-18 -5 -23 -2 -23 14 0 19 14 28 48 31 6 0 12 -8 12 -19z m100 0 c0 -17 -7
-20 -45 -20 -38 0 -45 3 -45 20 0 17 7 20 45 20 38 0 45 -3 45 -20z m56 10 c8
0 14 -9 14 -21 0 -15 -4 -19 -16 -15 -9 3 -22 6 -30 6 -8 0 -14 9 -14 21 0 15
4 19 16 15 9 -3 22 -6 30 -6z m-1408 -10 c6 0 12 -9 12 -20 0 -17 -7 -20 -50
-20 -43 0 -50 3 -50 19 0 21 23 31 55 25 11 -2 26 -4 33 -4z m240 -12 c3 -16
-5 -18 -62 -18 -60 0 -66 2 -66 20 0 19 5 21 62 18 50 -2 63 -6 66 -20z m132
2 c0 -18 -7 -20 -60 -20 -53 0 -60 2 -60 20 0 18 7 20 60 20 53 0 60 -2 60
-20z m90 -16 c0 -19 -7 -24 -35 -30 -20 -3 -37 -5 -39 -3 -2 2 -2 18 1 34 4
28 7 30 39 27 28 -3 34 -8 34 -28z m450 0 c0 -33 -2 -36 -22 -30 -13 3 -29 6
-35 6 -20 0 -16 48 5 53 45 12 52 8 52 -29z m140 5 c0 -17 -8 -19 -60 -19 -56
0 -60 2 -60 23 0 21 3 22 60 19 51 -3 60 -7 60 -23z m-1150 1 c0 -11 -4 -20
-9 -20 -5 0 -16 -3 -25 -6 -11 -4 -16 0 -16 14 0 20 12 30 38 31 6 1 12 -8 12
-19z m165 6 c57 -24 40 -46 -22 -30 -14 4 -23 14 -23 25 0 23 1 23 45 5z
m1105 -6 c0 -18 -7 -20 -55 -20 -48 0 -55 2 -55 20 0 18 7 20 55 20 48 0 55
-2 55 -20z m130 -30 c0 -16 -7 -20 -32 -21 -18 -1 -43 -3 -56 -4 -32 -3 -25
27 8 36 51 14 80 10 80 -11z m84 14 c9 -3 16 -14 16 -23 0 -13 -8 -15 -45 -13
-36 3 -45 8 -45 23 0 14 7 19 29 19 16 0 36 -3 45 -6z m-1224 -24 c0 -23 -35
-28 -43 -6 -7 18 1 26 25 26 11 0 18 -7 18 -20z m160 0 c0 -18 -7 -20 -69 -20
-50 0 -70 4 -74 14 -9 22 2 26 75 26 61 0 68 -2 68 -20z m50 0 c0 -11 -7 -20
-15 -20 -8 0 -15 9 -15 20 0 11 7 20 15 20 8 0 15 -9 15 -20z m-287 -5 c9 -4
17 -17 16 -29 0 -20 -1 -20 -9 -1 -5 11 -9 16 -9 10 -1 -16 -231 -13 -231 3 0
7 10 17 23 22 23 11 179 6 210 -5z m875 -2 c-4 -21 -68 -32 -68 -13 0 7 7 9
15 6 9 -3 18 1 21 9 9 21 36 19 32 -2z m182 2 c0 -12 -16 -15 -85 -15 -69 0
-85 3 -85 15 0 12 16 15 85 15 69 0 85 -3 85 -15z m-680 -26 c0 -15 -4 -19
-16 -15 -9 3 -18 6 -20 6 -2 0 -4 7 -4 15 0 8 9 15 20 15 14 0 20 -7 20 -21z
m898 -14 c3 -18 -2 -20 -53 -17 -35 3 -55 8 -55 16 0 22 13 27 60 24 36 -2 46
-7 48 -23z m-1128 -5 c0 -18 -7 -20 -55 -20 -48 0 -55 2 -55 20 0 18 7 20 55
20 48 0 55 -2 55 -20z m163 13 c-13 -2 -23 -11 -23 -19 0 -11 -15 -14 -60 -14
-53 0 -60 2 -60 20 0 18 6 20 83 19 45 -1 72 -4 60 -6z m847 -12 c0 -12 -9
-20 -25 -23 -21 -4 -25 -1 -25 18 0 19 5 24 25 24 18 0 25 -5 25 -19z m188
-10 c3 -21 1 -23 -20 -18 -12 4 -26 7 -30 7 -5 0 -8 9 -8 21 0 32 54 23 58
-10z m-1425 9 c9 0 17 -7 17 -15 0 -11 -13 -14 -57 -12 -32 1 -70 -1 -85 -6
-24 -6 -28 -4 -28 12 0 22 38 31 100 25 19 -2 43 -4 53 -4z m902 -23 c0 -15
-3 -27 -7 -27 -5 0 -19 0 -33 0 -34 0 -36 46 -2 53 35 7 42 2 42 -26z m145 18
c0 -12 -14 -15 -65 -15 -51 0 -65 3 -65 15 0 12 14 15 65 15 51 0 65 -3 65
-15z m120 0 c0 -11 -12 -15 -50 -15 -38 0 -50 4 -50 15 0 11 12 15 50 15 38 0
50 -4 50 -15z m-1086 -1 c9 -3 16 -15 16 -25 0 -16 -5 -18 -27 -13 -38 9 -43
13 -43 30 0 14 26 19 54 8z m376 -29 c0 -15 -8 -25 -22 -29 -41 -11 -48 -7
-48 27 0 32 1 33 35 29 29 -3 35 -8 35 -27z m-300 -4 c0 -5 3 -16 6 -25 5 -12
0 -16 -20 -16 -21 0 -26 5 -26 25 0 18 5 25 20 25 11 0 20 -4 20 -9z m160 -16
c0 -24 -2 -25 -70 -25 -66 0 -70 1 -70 23 0 22 4 23 70 25 69 3 70 2 70 -23z
m50 0 c0 -16 -6 -25 -15 -25 -9 0 -15 9 -15 25 0 16 6 25 15 25 9 0 15 -9 15
-25z m768 -11 c-1 -10 -6 -17 -10 -16 -5 1 -42 2 -83 2 -68 0 -75 2 -75 20 0
17 8 19 78 22 83 3 96 0 90 -28z m32 19 c0 -44 -12 -63 -39 -62 -25 0 -25 0
-3 9 16 7 22 18 22 40 0 16 5 30 10 30 6 0 10 -8 10 -17z m130 2 c0 -9 -9 -15
-22 -15 -13 0 -40 -3 -60 -6 -42 -7 -51 7 -15 24 35 17 97 15 97 -3z m104 5
c39 -15 34 -41 -6 -34 -67 11 -76 14 -82 29 -4 12 2 15 29 15 18 0 45 -4 59
-10z m-1454 -15 c0 -11 -12 -15 -45 -15 -69 0 -57 28 13 29 22 1 32 -4 32 -14z
m124 -5 c16 -16 2 -19 -57 -13 -41 4 -57 10 -57 21 0 12 10 13 53 8 28 -4 56
-11 61 -16z m884 -2 c-2 -19 -10 -23 -38 -24 -19 0 -45 -6 -56 -12 -23 -12
-34 -7 -34 15 0 9 14 13 45 13 33 0 45 4 45 15 0 9 9 15 21 15 15 0 20 -5 17
-22z m-1048 -33 c0 -17 -4 -18 -37 -9 -33 9 -28 24 7 24 20 0 30 -5 30 -15z
m133 8 c55 -9 28 -20 -54 -22 -57 -2 -69 1 -69 13 0 17 52 21 123 9z m417 -12
c0 -14 -5 -18 -20 -14 -11 3 -20 12 -20 19 0 8 9 14 20 14 13 0 20 -7 20 -19z
m790 4 c0 -10 -11 -15 -35 -15 -24 0 -35 5 -35 15 0 10 11 15 35 15 24 0 35
-5 35 -15z m110 3 c0 -10 2 -10 9 0 5 9 17 11 34 7 49 -13 17 -25 -64 -25 -64
0 -79 3 -79 15 0 11 12 15 50 15 33 0 50 -4 50 -12z m-950 -8 c0 -11 -5 -12
-137 -14 -56 -1 -104 3 -120 10 -24 11 -7 12 115 13 88 1 142 -3 142 -9z m630
-4 c8 -2 -13 -4 -47 -5 -35 0 -63 2 -63 7 0 7 76 5 110 -2z"/>
<path d="M2054 3173 c18 -43 64 -145 101 -228 81 -181 91 -204 100 -230 5 -13
9 -16 12 -7 3 7 -2 28 -11 46 -8 18 -46 104 -84 192 -110 253 -134 304 -143
304 -5 0 7 -35 25 -77z"/>
<path d="M2000 3224 c0 -18 79 -203 181 -423 22 -46 42 -82 44 -79 3 3 -40
108 -95 233 -106 240 -129 287 -130 269z"/>
<path d="M2425 3205 c3 -11 9 -32 12 -47 3 -16 9 -28 14 -28 15 0 10 28 -12
62 -12 18 -18 24 -14 13z"/>
<path d="M2361 3201 c-1 -7 11 -40 25 -72 14 -32 24 -64 21 -71 -2 -7 -19 20
-38 61 -18 41 -35 69 -37 63 -1 -5 11 -40 27 -77 17 -37 31 -74 31 -81 0 -8 5
-14 10 -14 6 0 10 7 10 15 0 8 5 23 10 33 8 13 2 33 -24 87 -19 39 -35 64 -35
56z"/>
<path d="M2394 3194 c5 -10 13 -32 18 -49 13 -37 28 -55 28 -33 0 9 -4 19 -9
23 -5 3 -12 19 -16 35 -4 16 -11 33 -17 37 -8 4 -9 0 -4 -13z"/>
<path d="M2120 3193 c0 -6 36 -92 81 -190 45 -98 83 -188 86 -200 3 -13 9 -23
14 -23 12 0 12 23 0 35 -5 6 -42 87 -82 180 -71 165 -99 222 -99 198z"/>
<path d="M2160 3182 c0 -5 30 -76 66 -158 36 -82 68 -159 71 -172 3 -12 9 -25
14 -28 11 -7 12 29 1 41 -5 6 -37 79 -72 163 -56 136 -80 182 -80 154z"/>
<path d="M2290 3186 c0 -3 18 -47 40 -97 22 -51 40 -98 40 -106 0 -7 5 -13 10
-13 13 0 13 25 0 48 -5 9 -25 52 -44 95 -30 65 -46 91 -46 73z"/>
<path d="M2200 3177 c0 -4 27 -72 60 -149 33 -78 60 -148 60 -155 0 -7 5 -13
10 -13 13 0 13 25 0 48 -5 9 -33 71 -61 137 -46 108 -69 152 -69 132z"/>
<path d="M2238 3160 c6 -14 29 -68 52 -120 23 -52 47 -106 52 -120 l10 -25 10
28 c8 23 2 45 -38 137 -26 61 -51 113 -55 116 -10 6 -4 -12 44 -121 40 -93 54
-135 39 -120 -5 6 -31 60 -57 120 -25 61 -51 115 -56 120 -7 7 -7 2 -1 -15z"/>
<path d="M2014 2581 c22 -24 155 -95 163 -87 4 3 2 6 -4 6 -5 0 -47 22 -93 50
-46 27 -75 41 -66 31z"/>
<path d="M764 1529 c-15 -16 -16 -24 -6 -39 7 -11 12 -27 12 -36 0 -11 5 -14
16 -10 9 3 22 6 30 6 8 0 14 7 14 15 0 23 27 18 33 -6 8 -28 61 -23 63 6 1 11
3 25 4 30 5 22 -1 35 -21 45 -16 9 -26 8 -44 -4 -20 -13 -25 -13 -35 -1 -17
21 -44 19 -66 -6z m56 -19 c0 -13 -7 -20 -20 -20 -25 0 -27 27 -2 33 9 3 18 5
20 6 1 0 2 -8 2 -19z"/>
<path d="M2205 1514 c-12 -12 -19 -13 -30 -4 -22 18 -70 8 -73 -16 -5 -38 15
-74 43 -74 20 0 25 5 25 26 0 31 23 28 28 -4 5 -34 53 -30 70 5 17 38 15 50
-10 67 -28 20 -33 20 -53 0z"/>
<path d="M1310 3330 c18 -16 35 -30 37 -30 10 0 -20 41 -37 50 -34 18 -34 11
0 -20z"/>
<path d="M1750 1951 c0 -5 14 -19 30 -31 35 -25 40 -13 7 18 -25 24 -37 28
-37 13z"/>
</g>
</svg>
